<svg width="200.000000" height="200.000000" viewBox="0 0 200 200" fill="none" xmlns="http://www.w3.org/2000/svg" xmlns:xlink="http://www.w3.org/1999/xlink">
	<desc>
			Created with Pixso.
	</desc>
	<rect width="200.000000" height="200.000000" fill="#EFEFEF"/>
	<rect id="自定义" width="200.000000" height="200.000000" fill="#FFFFFF"/>
	<g clip-path="url(#clip2_1)">
		<rect id="矩形 1" x="6.000000" y="80.426407" rx="7.500000" width="60.000000" height="15.000000" transform="rotate(-45 6.000000 80.426407)" fill="#333333"/>
		<rect id="矩形 3" x="58.999996" y="76.000000" rx="7.500000" width="60.000000" height="15.000000" fill="#333333"/>
		<rect id="矩形 2" x="16.606613" y="6.000000" rx="7.500000" width="60.000000" height="15.000000" transform="rotate(45 16.606613 6.000000)" fill="#333333"/>
		<path id="TX" d="M134.219 133.602L123.742 133.602L123.742 165.734L119.031 165.734L119.031 133.602L108.602 133.602L108.602 129.43L134.219 129.43L134.219 133.602ZM165.227 165.734L159.531 165.734L151.422 152.07Q151.141 151.602 150.602 150.195L150.484 150.195Q150.438 150.383 149.641 152.094L141.297 165.734L135.578 165.734L147.648 147.5L136.539 129.43L142.281 129.43L149.453 141.992Q150.086 143.094 150.719 144.57L150.812 144.57Q151.375 143.305 152.195 141.875L159.695 129.43L165.062 129.43L153.719 147.43L165.227 165.734Z" fill-rule="evenodd" fill="#000000"/>
		<path id="RX" d="M44.7891 165.734L39.2578 165.734L33.2344 155.656Q31.4297 152.633 29.9297 151.543Q28.4297 150.453 26.3438 150.453L22.9688 150.453L22.9688 165.734L18.2812 165.734L18.2812 129.43L29.3438 129.43Q34.6406 129.43 37.6406 131.984Q40.6406 134.539 40.6406 139.133Q40.6406 146.68 32.5781 148.93L32.5781 149.047Q34.0781 149.68 35.168 150.852Q36.2578 152.023 37.9922 154.859L44.7891 165.734ZM22.9688 133.531L22.9688 146.352L28.5 146.352Q31.7109 146.352 33.7148 144.477Q35.7188 142.602 35.7188 139.555Q35.7188 136.719 33.8906 135.125Q32.0625 133.531 28.5703 133.531L22.9688 133.531ZM75.1875 165.734L69.4922 165.734L61.3828 152.07Q61.1016 151.602 60.5625 150.195L60.4453 150.195Q60.3984 150.383 59.6016 152.094L51.2578 165.734L45.5391 165.734L57.6094 147.5L46.5 129.43L52.2422 129.43L59.4141 141.992Q60.0469 143.094 60.6797 144.57L60.7734 144.57Q61.3359 143.305 62.1562 141.875L69.6562 129.43L75.0234 129.43L63.6797 147.43L75.1875 165.734Z" fill-rule="evenodd" fill="#000000"/>
		<circle id="椭圆 1" cx="183.500000" cy="16.500000" r="10.500000" fill="#333333"/>
	</g>
	<defs>
		<clipPath id="clip2_1">
			<rect id="自定义" width="200.000000" height="200.000000" fill="white"/>
		</clipPath>
	</defs>
</svg>
