<?xml version="1.0" standalone="no"?>
<!DOCTYPE svg PUBLIC "-//W3C//DTD SVG 1.1//EN" "http://www.w3.org/Graphics/SVG/1.1/DTD/svg11.dtd">
<svg t="1686332485339" class="icon" viewBox="0 0 1024 1024" version="1.1" xmlns="http://www.w3.org/2000/svg" p-id="1284"
    xmlns:xlink="http://www.w3.org/1999/xlink" width="200" height="200">
    <path
        d="M837.688889 475.927273H547.167677V185.406061c0-20.040404-16.290909-36.331313-36.331313-36.331314-20.040404 0-36.331313 16.290909-36.331313 36.331314v290.521212H184.113131c-20.040404 0-36.331313 16.290909-36.331313 36.331313 0 20.040404 16.290909 36.331313 36.331313 36.331313h290.521212V839.111111c0 20.040404 16.290909 36.331313 36.331314 36.331313 20.040404 0 36.331313-16.161616 36.331313-36.331313V548.460606H837.818182c20.040404 0 36.331313-16.290909 36.331313-36.331313-0.129293-20.040404-16.290909-36.20202-36.460606-36.20202z m0 0"
        p-id="1285" fill="#ccc" />
</svg>